Coordinates
version=1
nRows=22
nColumns=24
inDegrees=yes

Units are S.I. units (second, meters, Newtons, ...)
Angles are in degrees.

endheader
time	pelvis_tilt	pelvis_list	pelvis_rotation	pelvis_tx	pelvis_ty	pelvis_tz	hip_flexion_r	hip_adduction_r	hip_rotation_r	knee_angle_r	ankle_angle_r	subtalar_angle_r	mtp_angle_r	hip_flexion_l	hip_adduction_l	hip_rotation_l	knee_angle_l	ankle_angle_l	subtalar_angle_l	mtp_angle_l	lumbar_extension	lumbar_bending	lumbar_rotation
      2.05500000	    -24.64541659	      5.55039921	    358.84328302	     -0.64852827	      1.35400095	     -1.03347154	     17.75808972	     -1.30858487	      3.11114291	    -16.19762923	     12.26394970	     -3.03895276	      5.70192678	     38.81555990	      6.44724995	     -9.81853921	      7.11686067	     -7.20062674	      8.07446547	     32.31063134	     29.48403610	      3.69649060	   -206.95720255
      2.06000000	    -24.35265203	      5.64120264	    358.89580683	     -0.64367320	      1.35384272	     -1.03365260	     17.15739463	     -1.45657155	      3.05304162	    -16.24562740	     12.31426411	     -3.03576830	      5.71301375	     38.70812768	      6.58015234	     -9.47330993	      6.28990692	     -7.31517337	      7.06438037	     32.19746054	     29.18159097	      3.36548402	   -207.48398325
      2.06500000	    -24.12258753	      5.72763197	    358.93673131	     -0.63877250	      1.35363142	     -1.03387893	     16.63548419	     -1.59783556	      2.98736712	    -16.31478355	     12.35090507	     -2.99231230	      5.83248501	     38.66358222	      6.70532907	     -9.13207341	      5.45155373	     -7.48760109	      6.07922636	     32.05926756	     28.94826620	      3.07785815	   -207.93288816
      2.07000000	    -23.88955990	      5.81688533	    359.00466443	     -0.63377401	      1.35345931	     -1.03412182	     16.10138714	     -1.74787586	      2.88937431	    -16.38123095	     12.33523329	     -2.98834569	      5.96974474	     38.59148245	      6.85429917	     -8.73237112	      4.63942518	     -7.71716038	      5.12126806	     31.90413613	     28.71198481	      2.76578225	   -208.36732233
      2.07500000	    -23.69342382	      5.88736635	    359.08354917	     -0.62873287	      1.35326992	     -1.03442866	     15.61586671	     -1.88021449	      2.77339451	    -16.47031711	     12.29303426	     -2.99910273	      6.13214307	     38.54494265	      7.00074079	     -8.30079979	      3.85034353	     -8.02152537	      4.14014426	     31.76370899	     28.51318524	      2.49072645	   -208.75604402
      2.08000000	    -23.48937838	      5.97319225	    359.14877761	     -0.62363277	      1.35312892	     -1.03474322	     15.14274677	     -2.02631958	      2.67072706	    -16.59921311	     12.21378332	     -2.97600198	      6.40499702	     38.45490750	      7.16094983	     -7.85116251	      3.12945477	     -8.41111018	      3.10812942	     31.69947395	     28.30546234	      2.22074979	   -209.06692861
      2.08500000	    -23.34708823	      6.03256013	    359.25345501	     -0.61849879	      1.35294825	     -1.03511326	     14.75206951	     -2.14820435	      2.53526376	    -16.77389522	     12.09562712	     -3.00777819	      6.60969421	     38.42098571	      7.32102221	     -7.34473956	      2.42381289	     -8.80823152	      2.17314844	     31.61453883	     28.16396000	      1.95878824	   -209.37538114
      2.09000000	    -23.22612794	      6.10031089	    359.34901647	     -0.61332353	      1.35279407	     -1.03551305	     14.42119038	     -2.27814578	      2.40291741	    -17.01798658	     11.94731224	     -3.01016143	      6.88529194	     38.38153367	      7.48984046	     -6.85246940	      1.77548861	     -9.26767172	      1.22677981	     31.57272061	     28.04905125	      1.71586233	   -209.61115182
      2.09500000	    -23.13709628	      6.15335022	    359.44819777	     -0.60815779	      1.35264527	     -1.03594739	     14.16756896	     -2.39234131	      2.26600322	    -17.34107321	     11.75186707	     -3.01877776	      7.21069684	     38.36257636	      7.65042008	     -6.35983551	      1.15805349	     -9.75906247	      0.31278846	     31.57801513	     27.95434118	      1.49701952	   -209.82642325
      2.10000000	    -23.07483864	      6.20713189	    359.54284259	     -0.60297468	      1.35251883	     -1.03640070	     13.99090670	     -2.50638342	      2.13857456	    -17.75082083	     11.50853625	     -3.02211575	      7.59182337	     38.35178054	      7.80995611	     -5.86848699	      0.57658957	    -10.25492054	     -0.56089780	     31.59670950	     27.88853359	      1.29145765	   -209.99471569
      2.10500000	    -23.05056763	      6.27398506	    359.62455723	     -0.59776013	      1.35240488	     -1.03685365	     13.91184441	     -2.63168628	      2.03773046	    -18.25738069	     11.17227858	     -3.07397025	      8.24449985	     38.35929539	      7.97128571	     -5.41704205	      0.03827466	    -10.77414033	     -1.39440410	     31.79414263	     27.87297347	      1.09562784	   -210.06340548
      2.11000000	    -22.99944439	      6.31321636	    359.72784658	     -0.59256663	      1.35237164	     -1.03738952	     13.85117324	     -2.74179260	      1.88115584	    -18.85884984	     10.85606519	     -3.02397646	      8.64456049	     38.33475960	      8.12925032	     -4.92786188	     -0.51176206	    -11.21160674	     -2.17470088	     31.72961574	     27.80669423	      0.92535287	   -210.17943426
      2.11500000	    -22.98542028	      6.36102564	    359.81542686	     -0.58736897	      1.35235159	     -1.03793187	     13.89916559	     -2.86171070	      1.74962952	    -19.57710814	     10.47239294	     -2.96536694	      9.22329317	     38.33879567	      8.28320840	     -4.46768917	     -1.04563896	    -11.65581651	     -2.96608851	     31.72398485	     27.78795890	      0.76844341	   -210.21863778
      2.12000000	    -23.02486873	      6.39813029	    359.89741399	     -0.58218886	      1.35232644	     -1.03847983	     14.07566175	     -2.96868296	      1.63777329	    -20.40578328	      9.93518302	     -3.04821665	     10.13864835	     38.40102006	      8.41717572	     -4.03996830	     -1.58691214	    -12.03751358	     -3.66256814	     31.80868350	     27.82873381	      0.63686085	   -210.22708003
      2.12500000	    -23.03236034	      6.43368403	    359.97642006	     -0.57701585	      1.35239489	     -1.03907475	     14.28073197	     -3.08828676	      1.50208398	    -21.34817622	      9.41506655	     -2.97577557	     10.91161071	     38.42589055	      8.55530229	     -3.60551510	     -2.13936508	    -12.35171394	     -4.38640032	     31.70100471	     27.82703758	      0.51555653	   -210.24210774
      2.13000000	    -23.02714362	      6.47613583	    360.05872836	     -0.57181259	      1.35253415	     -1.03972600	     14.53187742	     -3.23411220	      1.32546622	    -22.39257232	      8.83633942	     -2.81530957	     11.70790041	     38.42873793	      8.70663702	     -3.17764261	     -2.69094764	    -12.61623241	     -5.09933075	     31.52243904	     27.81655842	      0.40344989	   -210.20760633
      2.13500000	    -23.03701486	      6.50831613	    360.11827393	     -0.56670370	      1.35269759	     -1.04035295	     14.88377498	     -3.36366613	      1.20643967	    -23.55707700	      8.16253222	     -2.74707793	     12.77291044	     38.46688891	      8.83085937	     -2.77433606	     -3.28163405	    -12.80189352	     -5.77421738	     31.29814991	     27.80696589	      0.31056495	   -210.20144721
      2.14000000	    -23.04441306	      6.55314722	    360.17953949	     -0.56155909	      1.35290289	     -1.04102723	     15.29242946	     -3.52573338	      1.05890295	    -24.81937136	      7.43154873	     -2.59101308	     13.84046138	     38.49606364	      8.97279323	     -2.37994887	     -3.87609990	    -12.92147842	     -6.44200534	     30.98263556	     27.80647219	      0.21790813	   -210.16371793
      2.14500000	    -23.04954274	      6.60519823	    360.23174386	     -0.55643248	      1.35314722	     -1.04171954	     15.76563527	     -3.70603909	      0.91807762	    -26.17836270	      6.62937412	     -2.40701409	     14.98724648	     38.52450872	      9.11902482	     -1.99809285	     -4.48217650	    -12.97026166	     -7.07992590	     30.59468939	     27.80824830	      0.12822159	   -210.10756139
      2.15000000	    -23.02754669	      6.66962482	    360.27413917	     -0.55132335	      1.35345228	     -1.04242537	     16.26870240	     -3.91072287	      0.78276075	    -27.61630580	      5.75971363	     -2.19466387	     16.18712994	     38.52167832	      9.27586080	     -1.63457776	     -5.09240234	    -12.94876014	     -7.68405073	     30.13779387	     27.77274405	      0.03582325	   -210.04648885
      2.15500000	    -23.03479591	      6.73687013	    360.31170763	     -0.54623534	      1.35372648	     -1.04316142	     16.86510730	     -4.12819393	      0.66360587	    -29.13482641	      4.81774773	     -1.97024931	     17.44223573	     38.55264272	      9.43524964	     -1.28210849	     -5.71299369	    -12.85940013	     -8.25134169	     29.63526234	     27.78097644	     -0.04260620	   -209.97066393
      2.16000000	    -23.02515501	      6.82063805	    360.33995518	     -0.54116933	      1.35403452	     -1.04390490	     17.49521118	     -4.37090525	      0.56510792	    -30.71000278	      3.81260289	     -1.72863683	     18.71638917	     38.55628111	      9.60930676	     -0.95019667	     -6.32025462	    -12.71609978	     -8.78167613	     29.08774578	     27.76804809	     -0.13081966	   -209.88750421
